<svg xmlns="http://www.w3.org/2000/svg" width="1600" height="900" viewBox="0 0 1600 900"><rect width="1600" height="900" fill="#F2F4F7"/><rect x="0" y="0" width="1600" height="130" fill="#0B1F3A"/><g transform="translate(55,33) scale(0.28)">
<text x="0" y="150" font-family="Inter Display, Inter, Arial, sans-serif" font-size="180" font-weight="800" letter-spacing="24" fill="#FF2DB2">SH</text>
<path d="M610 150 L710 0 L810 150 L760 150 L710 70 L660 150 Z" fill="#1A6BFF"/>
<circle cx="710" cy="120" r="18" fill="#1A6BFF"/>
<rect x="855" y="0" width="28" height="150" rx="2" fill="#1A6BFF"/><text x="0" y="225" font-family="Inter Display, Inter, Arial, sans-serif" font-size="28" font-weight="500" letter-spacing="10" fill="#FFFFFF">SUPERHOST HOSPITALITY AI</text></g><text x="830" y="76" font-family="Inter Display, Inter, Arial, sans-serif" font-size="22" fill="#FFFFFF">Overview</text><rect x="828" y="95" width="90" height="5" fill="#1A6BFF"/><text x="1010" y="76" font-family="Inter Display, Inter, Arial, sans-serif" font-size="22" fill="#FFFFFF">Performance</text><text x="1225" y="76" font-family="Inter Display, Inter, Arial, sans-serif" font-size="22" fill="#FFFFFF">Forecast</text><text x="1400" y="76" font-family="Inter Display, Inter, Arial, sans-serif" font-size="22" fill="#FFFFFF">Insights</text><text x="60" y="210" font-family="Inter Display, Inter, Arial, sans-serif" font-size="38" font-weight="700" fill="#0B1F3A">Portfolio Overview</text><rect x="60" y="270" width="310" height="145" rx="12" fill="white"/><text x="90" y="320" font-family="Inter Display, Inter, Arial, sans-serif" font-size="22" fill="#0B1F3A">Total Revenue</text><text x="90" y="370" font-family="Inter Display, Inter, Arial, sans-serif" font-size="40" font-weight="700" fill="#0B1F3A">$126.8M</text><text x="90" y="398" font-family="Inter Display, Inter, Arial, sans-serif" font-size="20" fill="#0A8F4D">↑ 8.4% vs LY</text><rect x="425" y="270" width="310" height="145" rx="12" fill="white"/><text x="455" y="320" font-family="Inter Display, Inter, Arial, sans-serif" font-size="22" fill="#0B1F3A">Total NOI</text><text x="455" y="370" font-family="Inter Display, Inter, Arial, sans-serif" font-size="40" font-weight="700" fill="#0B1F3A">$38.7M</text><text x="455" y="398" font-family="Inter Display, Inter, Arial, sans-serif" font-size="20" fill="#0A8F4D">↑ 6.2% vs LY</text><rect x="790" y="270" width="310" height="145" rx="12" fill="white"/><text x="820" y="320" font-family="Inter Display, Inter, Arial, sans-serif" font-size="22" fill="#0B1F3A">Occupancy</text><text x="820" y="370" font-family="Inter Display, Inter, Arial, sans-serif" font-size="40" font-weight="700" fill="#0B1F3A">72.6%</text><text x="820" y="398" font-family="Inter Display, Inter, Arial, sans-serif" font-size="20" fill="#0A8F4D">↑ 2.1% vs LY</text><rect x="1155" y="270" width="310" height="145" rx="12" fill="white"/><text x="1185" y="320" font-family="Inter Display, Inter, Arial, sans-serif" font-size="22" fill="#0B1F3A">RevPAR</text><text x="1185" y="370" font-family="Inter Display, Inter, Arial, sans-serif" font-size="40" font-weight="700" fill="#0B1F3A">$164.21</text><text x="1185" y="398" font-family="Inter Display, Inter, Arial, sans-serif" font-size="20" fill="#0A8F4D">↑ 5.7% vs LY</text><rect x="60" y="480" width="910" height="350" rx="14" fill="white"/><text x="90" y="535" font-family="Inter Display, Inter, Arial, sans-serif" font-size="28" font-weight="700" fill="#0B1F3A">NOI Performance (YTD)</text><polyline points="150,740 250,690 350,710 450,640 550,670 650,610 750,650 850,600" fill="none" stroke="#FF2DB2" stroke-width="6"/><rect x="150" y="620" width="40" height="100" fill="#1A6BFF"/><rect x="235" y="570" width="40" height="150" fill="#1A6BFF"/><rect x="320" y="585" width="40" height="135" fill="#1A6BFF"/><rect x="405" y="530" width="40" height="190" fill="#1A6BFF"/><rect x="490" y="475" width="40" height="245" fill="#1A6BFF"/><rect x="575" y="550" width="40" height="170" fill="#1A6BFF"/><rect x="660" y="500" width="40" height="220" fill="#1A6BFF"/><rect x="745" y="460" width="40" height="260" fill="#1A6BFF"/><rect x="1030" y="480" width="500" height="350" rx="14" fill="white"/><text x="1070" y="535" font-family="Inter Display, Inter, Arial, sans-serif" font-size="28" font-weight="700" fill="#0B1F3A">Top Performers</text><text x="1070" y="615" font-family="Inter Display, Inter, Arial, sans-serif" font-size="24" fill="#0B1F3A">The Asher</text><text x="1390" y="615" font-family="Inter Display, Inter, Arial, sans-serif" font-size="24" fill="#0B1F3A">$2.6M ↑</text><text x="1070" y="685" font-family="Inter Display, Inter, Arial, sans-serif" font-size="24" fill="#0B1F3A">The Marcus</text><text x="1390" y="685" font-family="Inter Display, Inter, Arial, sans-serif" font-size="24" fill="#0B1F3A">$2.3M ↑</text><text x="1070" y="755" font-family="Inter Display, Inter, Arial, sans-serif" font-size="24" fill="#0B1F3A">The Riley</text><text x="1390" y="755" font-family="Inter Display, Inter, Arial, sans-serif" font-size="24" fill="#0B1F3A">$2.1M ↑</text></svg>